<svg id="Layer_1" data-name="Layer 1" xmlns="http://www.w3.org/2000/svg" xmlns:xlink="http://www.w3.org/1999/xlink" viewBox="0 0 103.37 69.37"><defs><style>.cls-1{fill:none;}.cls-2{clip-path:url(#clip-path);}.cls-3{fill:#6d6e71;}.cls-4{clip-path:url(#clip-path-2);}</style><clipPath id="clip-path" transform="translate(0 -0.13)"><rect class="cls-1" width="103.52" height="69.5"/></clipPath><clipPath id="clip-path-2" transform="translate(0 -0.13)"><rect class="cls-1" y="0.13" width="103.37" height="69.36"/></clipPath></defs><title>logo</title><g class="cls-2"><path class="cls-3" d="M32.51,39.68a4.66,4.66,0,0,1-3-1.49,4.08,4.08,0,0,1-1.24-2.92V26.1a4.4,4.4,0,0,1,1.25-3,5.13,5.13,0,0,1,3-1.72,3.41,3.41,0,0,1,3,.79,3.92,3.92,0,0,1,1.24,3v2.17L34,27.56V25.41a1.37,1.37,0,0,0-.45-1.07A1.31,1.31,0,0,0,32.42,24a1.72,1.72,0,0,0-1.09.59,1.66,1.66,0,0,0-.45,1.13v9.57a1.51,1.51,0,0,0,.45,1.09,1.58,1.58,0,0,0,1.09.5,1.41,1.41,0,0,0,1.09-.39A1.45,1.45,0,0,0,34,35.43V31.83l-1.49,0V29.15l4.28-.25v6.65a4.17,4.17,0,0,1-1.25,3.12,3.66,3.66,0,0,1-3,1" transform="translate(0 -0.13)"/><path class="cls-3" d="M42.29,19.62a3.21,3.21,0,0,1,3,1,4.84,4.84,0,0,1,1.24,3.46V35.84a5.17,5.17,0,0,1-1.25,3.57,3.44,3.44,0,0,1-3,1.2,4.36,4.36,0,0,1-3-1.67A5.06,5.06,0,0,1,38,35.56V25a5.4,5.4,0,0,1,1.25-3.48,4.83,4.83,0,0,1,3-1.89m1.46,4.68a1.69,1.69,0,0,0-.45-1.22,1.21,1.21,0,0,0-1.09-.38,1.66,1.66,0,0,0-1.09.65,2,2,0,0,0-.46,1.28v11a1.84,1.84,0,0,0,.46,1.25,1.51,1.51,0,0,0,1.09.57A1.3,1.3,0,0,0,43.31,37a1.81,1.81,0,0,0,.45-1.25Z" transform="translate(0 -0.13)"/><path class="cls-3" d="M63.21,23.92a.81.81,0,0,0-.79.35,1.74,1.74,0,0,0-.33,1.1V35.65a1.84,1.84,0,0,0,.33,1.12.86.86,0,0,0,.79.4,1,1,0,0,0,.79-.52,2,2,0,0,0,.32-1.13V25.64A2.07,2.07,0,0,0,64,24.49,1.15,1.15,0,0,0,63.21,23.92Z" transform="translate(0 -0.13)"/><path class="cls-3" d="M81.7,9.51,71.12,6.19a.81.81,0,0,0-.24,0h-.13a.4.4,0,0,0-.22,0L63.28,8V4.25a.8.8,0,0,0-.56-.76L52.14.17a2.56,2.56,0,0,1-.66,0,.79.79,0,0,0-.24,0L40.66,3.49a.8.8,0,0,0-.56.76V8.2l-7.35-2h-.07l-.18,0a.81.81,0,0,0-.24,0L21.67,9.51a.8.8,0,0,0-.56.76V43.44h0a.33.33,0,0,0,.28.32l29.54,8.11a.32.32,0,0,0,.17,0v0l31.16-8.27V10.27A.8.8,0,0,0,81.7,9.51ZM51.1,51.1h0l-29.14-8V10.27L32.49,6.95V17.11l8.4-2.34V4.25l10.2-3.2ZM63.28,8.84l6.8-1.75v9l-6.8-1.89ZM59.81,23.67l-3.59-.53v5.65l2.62.15v3l-2.62,0v8.79L54.29,41V19.62l5.53,1.08Zm6.53,11.78a5.26,5.26,0,0,1-.9,3.05A3.13,3.13,0,0,1,63.26,40,2.22,2.22,0,0,1,61.08,39a5.37,5.37,0,0,1-.89-3.18V25.19a5,5,0,0,1,.9-3.13,2.09,2.09,0,0,1,2.17-.9,3.42,3.42,0,0,1,2.18,1.68,5.58,5.58,0,0,1,.9,3.1Zm5.43,3.25L70.6,32.82H69.3V39l-1.94.25V22.2l3.06.6a3.45,3.45,0,0,1,2.38,1.53A4.83,4.83,0,0,1,73.47,27v2.19a3.78,3.78,0,0,1-1,2.69l1.44,6.54Zm8.47-12-2.05-.3V37.87l-1.94.25v-12l-2.07-.3V23.54l6.06,1.19Z" transform="translate(0 -0.13)"/><path class="cls-3" d="M70.47,25.29l-1.17-.17v5.26l1.17,0a.93.93,0,0,0,.79-.37,1.42,1.42,0,0,0,.32-.95V26.81Q71.58,25.45,70.47,25.29Z" transform="translate(0 -0.13)"/><polyline class="cls-3" points="0 60.16 4.42 60.16 4.42 61.46 2.93 61.46 2.93 69.26 1.5 69.26 1.5 61.46 0 61.46 0 60.16"/><path class="cls-3" d="M8,69.39a2.8,2.8,0,0,1-.13-1.12V66.84c0-.84-.29-1.16-.94-1.16H6.47v3.71H5v-9.1H7.2c1.48,0,2.12.69,2.12,2.09v.72a1.81,1.81,0,0,1-.94,1.85c.72.3.95,1,.95,1.94v1.4a2.68,2.68,0,0,0,.16,1.1H8m-1.56-7.8v2.8H7c.53,0,.86-.23.86-1v-.9c0-.65-.22-.94-.73-.94Z" transform="translate(0 -0.13)"/><path class="cls-3" d="M14.9,69.39H13.46l-.25-1.65H11.45l-.25,1.65H9.89l1.46-9.1h2.09l1.46,9.1M11.64,66.5H13l-.69-4.6Z" transform="translate(0 -0.13)"/><rect class="cls-3" x="15.56" y="60.16" width="1.43" height="9.1"/><polyline class="cls-3" points="19.3 62.67 19.3 69.26 18.02 69.26 18.02 60.16 19.81 60.16 21.28 65.6 21.28 60.16 22.55 60.16 22.55 69.26 21.09 69.26 19.3 62.67"/><rect class="cls-3" x="23.58" y="60.16" width="1.43" height="9.1"/></g><g class="cls-4"><g class="cls-2"><polyline class="cls-3" points="27.33 62.67 27.33 69.26 26.04 69.26 26.04 60.16 27.83 60.16 29.3 65.6 29.3 60.16 30.58 60.16 30.58 69.26 29.11 69.26 27.33 62.67"/><path class="cls-3" d="M33.75,64.32h2v2.89c0,1.46-.73,2.29-2.13,2.29s-2.13-.83-2.13-2.29V62.47c0-1.46.73-2.29,2.13-2.29s2.13.83,2.13,2.29v.88H34.4v-1c0-.65-.29-.9-.74-.9s-.74.25-.74.9V67.3c0,.65.29.88.74.88s.74-.23.74-.88V65.62h-.65v-1.3" transform="translate(0 -0.13)"/><path class="cls-3" d="M39.69,64.58a1.78,1.78,0,0,1-1-1.87v-.17c0-1.46.7-2.25,2.13-2.25h1.64v1.3H40.86c-.46,0-.73.23-.73.88V63c0,.73.33,1,.86,1h.62V63H43v1h.38v1.3H43v3a2.68,2.68,0,0,0,.16,1.1H41.74a2.17,2.17,0,0,1-.13-.71,1.35,1.35,0,0,1-1.33.82c-1.05,0-1.59-.74-1.59-2.08v-.92a1.87,1.87,0,0,1,1-1.91m1.18,3.61c.43,0,.72-.22.74-.79V65.29h-.55c-.65,0-.94.31-.94,1.16v.85C40.13,67.95,40.42,68.19,40.87,68.19Z" transform="translate(0 -0.13)"/></g></g><g class="cls-2"><polyline class="cls-3" points="46.42 60.15 50.84 60.15 50.84 61.45 49.34 61.45 49.34 69.25 47.91 69.25 47.91 61.45 46.42 61.45 46.42 60.15"/><polyline class="cls-3" points="52.89 63.99 54.86 63.99 54.86 65.29 52.89 65.29 52.89 67.95 55.37 67.95 55.37 69.25 51.46 69.25 51.46 60.15 55.37 60.15 55.37 61.45 52.89 61.45 52.89 63.99"/><path class="cls-3" d="M60.88,69.38H59.43l-.25-1.65H57.43l-.25,1.65H55.87l1.46-9.1h2.09l1.46,9.1M57.61,66.5H59l-.69-4.6Z" transform="translate(0 -0.13)"/><polyline class="cls-3" points="64.57 66.61 65.54 60.15 67.53 60.15 67.53 69.25 66.18 69.25 66.18 62.72 65.19 69.25 63.84 69.25 62.77 62.82 62.77 69.25 61.53 69.25 61.53 60.15 63.52 60.15 64.57 66.61"/></g><g class="cls-4"><g class="cls-2"><path class="cls-3" d="M72.85,62.38v.33a1.79,1.79,0,0,1-.92,1.83A1.84,1.84,0,0,1,73,66.48v.74a1.93,1.93,0,0,1-2.17,2.16H68.57v-9.1h2.16c1.48,0,2.12.69,2.12,2.09M70,61.58V64h.56c.53,0,.86-.23.86-1v-.51c0-.65-.22-.94-.73-.94Zm0,3.71v2.8h.82c.48,0,.74-.22.74-.9v-.79c0-.85-.27-1.11-.92-1.11Z" transform="translate(0 -0.13)"/><path class="cls-3" d="M75.22,60.28v7c0,.65.29.88.74.88s.74-.23.74-.88v-7H78v6.93c0,1.46-.73,2.29-2.13,2.29s-2.13-.83-2.13-2.29V60.28h1.43" transform="translate(0 -0.13)"/></g></g><g class="cls-2"><rect class="cls-3" x="79.02" y="60.15" width="1.43" height="9.1"/><polyline class="cls-3" points="81.49 60.15 82.92 60.15 82.92 67.95 85.28 67.95 85.28 69.25 81.49 69.25 81.49 60.15"/><path class="cls-3" d="M85.9,60.28h2.26c1.43,0,2.13.79,2.13,2.25v4.6c0,1.46-.7,2.25-2.13,2.25H85.9v-9.1m1.43,1.3v6.5h.81c.46,0,.73-.23.73-.88V62.47c0-.65-.27-.88-.73-.88Z" transform="translate(0 -0.13)"/><rect class="cls-3" x="91.21" y="60.15" width="1.43" height="9.1"/><polyline class="cls-3" points="94.95 62.66 94.95 69.25 93.66 69.25 93.66 60.15 95.46 60.15 96.92 65.6 96.92 60.15 98.2 60.15 98.2 69.25 96.73 69.25 94.95 62.66"/><path class="cls-3" d="M101.37,64.31h2V67.2c0,1.46-.73,2.29-2.13,2.29s-2.13-.83-2.13-2.29V62.47c0-1.46.73-2.29,2.13-2.29s2.13.83,2.13,2.29v.88H102v-1c0-.65-.29-.9-.74-.9s-.74.25-.74.9v4.91c0,.65.29.88.74.88s.74-.23.74-.88V65.61h-.65v-1.3" transform="translate(0 -0.13)"/></g></svg>
